# xmcd
#
# Track frame offsets: 
#        150
#        15227
#        45305
#        58192
#        75555
#        101300
#        117250
#        127405
#        148172
#        161570
#        171155
#        182312
#        190712
#        210725
#        224832
#
# Disc length: 3231 seconds
#
# Revision: 3
# Processed by: cddbd v1.5.2PL0 Copyright (c) Steve Scherf et al.
# Submitted via: ExactAudioCopy v1.0b3
#
DISCID=d00c9d0f
DTITLE=Братья Жемчужные - Мамаши спят ...
DYEAR=1994
DGENRE=Chanson
TTITLE0=Мамаши спят
TTITLE1=Мужичок из Тольятти
TTITLE2=Пьяные глаза
TTITLE3=Неудачное свидание
TTITLE4=Мишка Мишка
TTITLE5=Батальонный разведчик
TTITLE6=Шумит метель
TTITLE7=Мадонна
TTITLE8=Алименты
TTITLE9=Скажите, почему?
TTITLE10=Степка
TTITLE11=Баллада о нищете
TTITLE12=Расцвела сирень
TTITLE13=Людоедочка
TTITLE14=Губит людей не пиво
EXTD=
EXTT0=
EXTT1=
EXTT2=
EXTT3=
EXTT4=
EXTT5=
EXTT6=
EXTT7=
EXTT8=
EXTT9=
EXTT10=
EXTT11=
EXTT12=
EXTT13=
EXTT14=
PLAYORDER=
